<svg id="Layer_1" data-name="Layer 1" xmlns="http://www.w3.org/2000/svg" viewBox="0 0 46.71 49.68"><defs><style>.cls-1{fill:#c4d724;}</style></defs><path class="cls-1" d="M46.71,43a26.28,26.28,0,0,1-8.84,5A32.37,32.37,0,0,1,27.5,49.68,32,32,0,0,1,17.23,48a27,27,0,0,1-8.8-4.87A24.06,24.06,0,0,1,2.3,35.3,23.56,23.56,0,0,1,0,24.71,22.83,22.83,0,0,1,2.35,14.16,23.74,23.74,0,0,1,8.57,6.4,27.31,27.31,0,0,1,17.4,1.63,32.67,32.67,0,0,1,27.59,0a33.81,33.81,0,0,1,10,1.49,28.41,28.41,0,0,1,8.75,4.38l-6.23,7.21a20,20,0,0,0-5.91-2.76,23.81,23.81,0,0,0-6.62-1,22.76,22.76,0,0,0-6.58,1,18.35,18.35,0,0,0-5.68,2.84,13.6,13.6,0,0,0-4,4.83,15,15,0,0,0-1.49,6.9,13.86,13.86,0,0,0,5.59,11.63,17.87,17.87,0,0,0,5.73,2.84c4.52,1.34,14.51,1.26,16.36-3.64h9.2Z"/><path class="cls-1" d="M27.9,28.88l-8-7.35H36.77a9.94,9.94,0,0,1,9.94,9.94H34.59A9.93,9.93,0,0,1,27.9,28.88Z"/></svg>