<svg id="Layer_1" data-name="Layer 1" xmlns="http://www.w3.org/2000/svg" viewBox="0 0 39.44 38.55"><defs><style>.cls-1{fill:#c4d724;}</style></defs><path class="cls-1" d="M19.71,17h3.43c3.67,0,6.1-.68,6.1-4.83,0-3.81-2.95-4.47-6.1-4.47H7.59A9.81,9.81,0,0,1,2.7,16.25,11.16,11.16,0,0,0,0,18.32V0H24.47a15,15,0,0,1,5.1.86,11.36,11.36,0,0,1,4,2.45,11.54,11.54,0,0,1,2.57,3.88,13.3,13.3,0,0,1,.93,5q0,5.82-3.69,9.13A12.17,12.17,0,0,1,28.52,24l1.77,3a6.3,6.3,0,0,0,1.48,1.85,5.5,5.5,0,0,0,1.7,1,7,7,0,0,0,1.75.44,11.15,11.15,0,0,0,1.54.12h2.68v8.18H36.09a28.85,28.85,0,0,1-3-.14,10.9,10.9,0,0,1-2.85-.74,9.31,9.31,0,0,1-2.76-1.84,15.64,15.64,0,0,1-2.68-3.39l-4.8-7.8h-.34c-3.34,0-5.74,0-8.31.67a5.19,5.19,0,0,0-3.81,5v8.23H0V27.83a9.13,9.13,0,0,1,4.54-8C8.17,17.8,12.69,17,19.71,17Z"/></svg>